<svg xmlns="http://www.w3.org/2000/svg">

<g id="tool_guests_group">
<svg
   xmlns:dc="http://purl.org/dc/elements/1.1/"
   xmlns:cc="http://creativecommons.org/ns#"
   xmlns:rdf="http://www.w3.org/1999/02/22-rdf-syntax-ns#"
   xmlns:svg="http://www.w3.org/2000/svg"
   xmlns="http://www.w3.org/2000/svg"
   xmlns:sodipodi="http://sodipodi.sourceforge.net/DTD/sodipodi-0.dtd"
   id="svg3457"
   version="1.1"
   width="32"
   height="32"
   sodipodi:docname="guest_group.svg" >
  <metadata
     id="metadata3463">
    <rdf:RDF>
      <cc:Work
         rdf:about="">
        <dc:format>image/svg+xml</dc:format>
        <dc:type
           rdf:resource="http://purl.org/dc/dcmitype/StillImage"
/>
        <dc:title></dc:title>
      </cc:Work>
    </rdf:RDF>
  </metadata>
  <defs
     id="defs3461"
/>
  <sodipodi:namedview
     pagecolor="#ffffff"
     bordercolor="#666666"
     borderopacity="1"
     objecttolerance="10"
     gridtolerance="10"
     guidetolerance="10"
     id="namedview3459"
     showgrid="false"
/>
  <path
     style="fill:#cacaca"
     d="m 1.5455711,15.306342 c 0,-1.47613 1.033729,-3.410772 2.394318,-4.481012 1.327413,-1.0441442 1.338817,-1.1740042 0.227188,-2.5872106 -1.196133,-1.520637 -1.116689,-3.411429 0.198599,-4.726717 1.071835,-1.071835 2.82479,-1.363033 4.8819236,-0.810979 1.9260493,0.516876 2.5399473,4.140787 0.9843203,5.810556 L 9.3060797,9.5047528 10.829393,11.105643 c 1.521678,1.599173 2.71504,4.197317 2.263478,4.927961 -0.131457,0.212701 -2.783377,0.386729 -5.8931559,0.386729 l -5.654144,0 0,-1.113991 z"
     id="path3380"
/>
  <path
     style="fill:#e8c7a2"
     d="m 1.8028091,15.821452 c 0.160565,-0.418427 0.78178,-0.544628 2.061646,-0.418828 2.263579,0.222491 3.817794,-0.557752 4.35876,-2.188174 0.519493,-1.565703 -0.0378,-2.177567 -1.960463,-2.152445 -0.792164,0.01035 -1.194532,-0.07416 -0.894151,-0.187801 0.852743,-0.322613 0.646547,-1.1979102 -0.546148,-2.3183896 -1.462302,-1.373761 -1.500888,-3.832999 -0.08107,-5.16685 1.321476,-1.241463 3.901829,-1.279954 5.1056216,-0.07616 1.3372013,1.337201 1.1898373,4.118041 -0.29095,5.4903884 -1.1312666,1.048422 -1.1406966,1.097715 -0.327688,1.7129132 0.460403,0.348384 0.9685213,0.639678 1.1291513,0.647321 0.452284,0.02152 2.00817,2.714803 2.342759,4.055383 l 0.299883,1.201524 -5.7135819,0 c -4.659686,0 -5.671193,-0.110466 -5.48377,-0.598881 z"
     id="path3378"
/>
  <path
     style="fill:#efb48b"
     d="m 1.8028091,15.821452 c 0.160565,-0.418427 0.78178,-0.544628 2.061646,-0.418828 2.263579,0.222491 3.817794,-0.557752 4.35876,-2.188174 0.519493,-1.565703 -0.0378,-2.177567 -1.960463,-2.152445 -0.792164,0.01035 -1.194532,-0.07416 -0.894151,-0.187801 0.826891,-0.312832 0.654418,-1.6480532 -0.327689,-2.5368476 -0.571505,-0.517205 -0.873835,-1.345692 -0.873835,-2.394603 0,-3.164736 3.427183,-4.647813 5.5205976,-2.388981 1.3716493,1.480034 1.3479133,3.416263 -0.05913,4.823303 -1.3834546,1.3834564 -1.3696196,1.5741844 0.180621,2.4899346 1.1725323,0.692632 3.0962623,3.821468 3.0962623,5.035892 0,0.37203 -1.592234,0.517431 -5.6662169,0.517431 -4.619569,0 -5.623766,-0.110624 -5.436404,-0.598881 z m 5.349943,-9.9771506 c 1.025818,-1.620168 0.884826,-2.09458 -0.622493,-2.09458 -1.25912,0 -2.0538,1.525691 -1.422345,2.730735 0.57495,1.097213 1.038694,0.952941 2.044838,-0.636155 z"
     id="path3376"
/>
  <path
     style="fill:#d5b58c"
     d="m 1.8028091,15.821452 c 0.160565,-0.418427 0.78178,-0.544628 2.061646,-0.418828 2.263579,0.222491 3.817794,-0.557752 4.35876,-2.188174 0.519493,-1.565703 -0.0378,-2.177567 -1.960463,-2.152445 -0.792164,0.01035 -1.194532,-0.07416 -0.894151,-0.187801 0.826891,-0.312832 0.654418,-1.6480532 -0.327689,-2.5368476 -0.571505,-0.517205 -0.873835,-1.345692 -0.873835,-2.394603 0,-3.164736 3.427183,-4.647813 5.5205976,-2.388981 1.3716493,1.480034 1.3479133,3.416263 -0.05913,4.823303 -1.3834546,1.3834564 -1.3696196,1.5741844 0.180621,2.4899346 1.1725323,0.692632 3.0962623,3.821468 3.0962623,5.035892 0,0.37203 -1.592234,0.517431 -5.6662169,0.517431 -4.619569,0 -5.623766,-0.110624 -5.436404,-0.598881 z m 6.989995,-8.7916656 c 0.8786436,-1.34098 0.5253506,-3.087933 -0.688689,-3.405412 -2.265617,-0.592472 -3.894249,1.216411 -3.063203,3.402229 0.579483,1.524156 2.754104,1.526001 3.751892,0.0032 z"
     id="path3374"
/>
  <path
     style="fill:#adadac"
     d="m 1.8028091,15.821452 c 0.160565,-0.418427 0.78178,-0.544628 2.061646,-0.418828 2.263579,0.222491 3.817794,-0.557752 4.35876,-2.188174 0.519493,-1.565703 -0.0378,-2.177567 -1.960463,-2.152445 -0.792164,0.01035 -1.194532,-0.07416 -0.894151,-0.187801 0.30038,-0.113641 0.546147,-0.485155 0.546147,-0.825586 0,-0.3964632 0.471185,-0.6189672 1.310752,-0.6189672 0.720915,0 1.310753,0.154222 1.310753,0.342714 0,0.188494 0.572812,0.6810842 1.2729146,1.0946452 1.1725323,0.692632 3.0962623,3.821468 3.0962623,5.035892 0,0.37203 -1.592234,0.517431 -5.6662169,0.517431 -4.619569,0 -5.623766,-0.110624 -5.436404,-0.598881 z m 3.89348,-7.2656376 c -0.157371,-0.254631 0.283384,-0.436917 1.056436,-0.436917 1.855888,0 3.0124906,-1.751296 2.337542,-3.539439 -0.545814,-1.446027 -0.458625,-1.545768 0.5070716,-0.58007 1.0442853,1.044284 0.8826043,3.495744 -0.284467,4.313193 -1.0924186,0.7651604 -3.2061546,0.9073194 -3.6165826,0.243233 z m 0.764606,-5.981107 c 0.420533,-0.109897 1.108678,-0.109897 1.529211,0 0.420534,0.109897 0.07646,0.199812 -0.764606,0.199812 -0.841066,0 -1.185139,-0.08992 -0.764605,-0.199812 z"
     id="path3372"
/>
  <path
     style="fill:#d9a072"
     d="m 4.2763061,16.096337 c 1.622057,-0.08407 4.276332,-0.08407 5.8983889,0 1.622056,0.08406 0.294919,0.152846 -2.9491949,0.152846 -3.244113,0 -4.57125,-0.06878 -2.949194,-0.152846 z m 1.419983,-7.5405226 c -0.157371,-0.254631 0.283384,-0.436917 1.056436,-0.436917 1.855888,0 3.0124906,-1.751296 2.337542,-3.539439 -0.545814,-1.446027 -0.458625,-1.545768 0.5070716,-0.58007 1.0442853,1.044284 0.8826043,3.495744 -0.284467,4.313193 -1.0924186,0.7651604 -3.2061546,0.9073194 -3.6165826,0.243233 z m 0.764606,-5.981107 c 0.420533,-0.109897 1.108678,-0.109897 1.529211,0 0.420534,0.109897 0.07646,0.199812 -0.764606,0.199812 -0.841066,0 -1.185139,-0.08992 -0.764605,-0.199812 z"
     id="path3370"
/>
  <path
     style="fill:#747474"
     d="m 4.2763061,16.096337 c 1.622057,-0.08407 4.276332,-0.08407 5.8983889,0 1.622056,0.08406 0.294919,0.152846 -2.9491949,0.152846 -3.244113,0 -4.57125,-0.06878 -2.949194,-0.152846 z"
     id="path3368"
/>
  <path
     id="path3201"
     d="m 11.715063,15.306342 c 0,-1.47613 1.033729,-3.410772 2.394318,-4.481012 1.327413,-1.0441442 1.338817,-1.1740042 0.227188,-2.5872106 -1.196133,-1.520637 -1.116689,-3.411429 0.198599,-4.726717 1.071835,-1.071835 2.82479,-1.363033 4.881924,-0.810979 1.926049,0.516876 2.539947,4.140787 0.98432,5.810556 l -0.92584,0.9937734 1.523313,1.6008902 c 1.521678,1.599173 2.71504,4.197317 2.263478,4.927961 -0.131457,0.212701 -2.783377,0.386729 -5.893156,0.386729 l -5.654144,0 0,-1.113991 z"
     style="fill:#cacaca"
/>
  <path
     id="path3203"
     d="m 11.972301,15.821452 c 0.160565,-0.418427 0.78178,-0.544628 2.061646,-0.418828 2.263579,0.222491 3.817794,-0.557752 4.35876,-2.188174 0.519493,-1.565703 -0.0378,-2.177567 -1.960463,-2.152445 -0.792164,0.01035 -1.194532,-0.07416 -0.894151,-0.187801 0.852743,-0.322613 0.646547,-1.1979102 -0.546148,-2.3183896 -1.462302,-1.373761 -1.500888,-3.832999 -0.08107,-5.16685 1.321476,-1.241463 3.901829,-1.279954 5.105622,-0.07616 1.337201,1.337201 1.189837,4.118041 -0.29095,5.4903884 -1.131267,1.048422 -1.140697,1.097715 -0.327688,1.7129132 0.460403,0.348384 0.968521,0.639678 1.129151,0.647321 0.452284,0.02152 2.00817,2.714803 2.342759,4.055383 l 0.299883,1.201524 -5.713582,0 c -4.659686,0 -5.671193,-0.110466 -5.48377,-0.598881 z"
     style="fill:#e8c7a2"
/>
  <path
     id="path3205"
     d="m 11.972301,15.821452 c 0.160565,-0.418427 0.78178,-0.544628 2.061646,-0.418828 2.263579,0.222491 3.817794,-0.557752 4.35876,-2.188174 0.519493,-1.565703 -0.0378,-2.177567 -1.960463,-2.152445 -0.792164,0.01035 -1.194532,-0.07416 -0.894151,-0.187801 0.826891,-0.312832 0.654418,-1.6480532 -0.327689,-2.5368476 -0.571505,-0.517205 -0.873835,-1.345692 -0.873835,-2.394603 0,-3.164736 3.427183,-4.647813 5.520598,-2.388981 1.371649,1.480034 1.347913,3.416263 -0.05913,4.823303 -1.383455,1.3834564 -1.36962,1.5741844 0.180621,2.4899346 1.172532,0.692632 3.096262,3.821468 3.096262,5.035892 0,0.37203 -1.592234,0.517431 -5.666217,0.517431 -4.619569,0 -5.623766,-0.110624 -5.436404,-0.598881 z m 5.349943,-9.9771506 c 1.025818,-1.620168 0.884826,-2.09458 -0.622493,-2.09458 -1.25912,0 -2.0538,1.525691 -1.422345,2.730735 0.57495,1.097213 1.038694,0.952941 2.044838,-0.636155 z"
     style="fill:#efb48b"
/>
  <path
     id="path3207"
     d="m 11.972301,15.821452 c 0.160565,-0.418427 0.78178,-0.544628 2.061646,-0.418828 2.263579,0.222491 3.817794,-0.557752 4.35876,-2.188174 0.519493,-1.565703 -0.0378,-2.177567 -1.960463,-2.152445 -0.792164,0.01035 -1.194532,-0.07416 -0.894151,-0.187801 0.826891,-0.312832 0.654418,-1.6480532 -0.327689,-2.5368476 -0.571505,-0.517205 -0.873835,-1.345692 -0.873835,-2.394603 0,-3.164736 3.427183,-4.647813 5.520598,-2.388981 1.371649,1.480034 1.347913,3.416263 -0.05913,4.823303 -1.383455,1.3834564 -1.36962,1.5741844 0.180621,2.4899346 1.172532,0.692632 3.096262,3.821468 3.096262,5.035892 0,0.37203 -1.592234,0.517431 -5.666217,0.517431 -4.619569,0 -5.623766,-0.110624 -5.436404,-0.598881 z m 6.989995,-8.7916656 c 0.878644,-1.34098 0.525351,-3.087933 -0.688689,-3.405412 -2.265617,-0.592472 -3.894249,1.216411 -3.063203,3.402229 0.579483,1.524156 2.754104,1.526001 3.751892,0.0032 z"
     style="fill:#d5b58c"
/>
  <path
     id="path3209"
     d="m 11.972301,15.821452 c 0.160565,-0.418427 0.78178,-0.544628 2.061646,-0.418828 2.263579,0.222491 3.817794,-0.557752 4.35876,-2.188174 0.519493,-1.565703 -0.0378,-2.177567 -1.960463,-2.152445 -0.792164,0.01035 -1.194532,-0.07416 -0.894151,-0.187801 0.30038,-0.113641 0.546147,-0.485155 0.546147,-0.825586 0,-0.3964632 0.471185,-0.6189672 1.310752,-0.6189672 0.720915,0 1.310753,0.154222 1.310753,0.342714 0,0.188494 0.572812,0.6810842 1.272915,1.0946452 1.172532,0.692632 3.096262,3.821468 3.096262,5.035892 0,0.37203 -1.592234,0.517431 -5.666217,0.517431 -4.619569,0 -5.623766,-0.110624 -5.436404,-0.598881 z m 3.89348,-7.2656376 c -0.157371,-0.254631 0.283384,-0.436917 1.056436,-0.436917 1.855888,0 3.012491,-1.751296 2.337542,-3.539439 -0.545814,-1.446027 -0.458625,-1.545768 0.507072,-0.58007 1.044285,1.044284 0.882604,3.495744 -0.284467,4.313193 -1.092419,0.7651604 -3.206155,0.9073194 -3.616583,0.243233 z m 0.764606,-5.981107 c 0.420533,-0.109897 1.108678,-0.109897 1.529211,0 0.420534,0.109897 0.07646,0.199812 -0.764606,0.199812 -0.841066,0 -1.185139,-0.08992 -0.764605,-0.199812 z"
     style="fill:#adadac"
/>
  <path
     id="path3211"
     d="m 14.445798,16.096337 c 1.622057,-0.08407 4.276332,-0.08407 5.898389,0 1.622056,0.08406 0.294919,0.152846 -2.949195,0.152846 -3.244113,0 -4.57125,-0.06878 -2.949194,-0.152846 z m 1.419983,-7.5405226 c -0.157371,-0.254631 0.283384,-0.436917 1.056436,-0.436917 1.855888,0 3.012491,-1.751296 2.337542,-3.539439 -0.545814,-1.446027 -0.458625,-1.545768 0.507072,-0.58007 1.044285,1.044284 0.882604,3.495744 -0.284467,4.313193 -1.092419,0.7651604 -3.206155,0.9073194 -3.616583,0.243233 z m 0.764606,-5.981107 c 0.420533,-0.109897 1.108678,-0.109897 1.529211,0 0.420534,0.109897 0.07646,0.199812 -0.764606,0.199812 -0.841066,0 -1.185139,-0.08992 -0.764605,-0.199812 z"
     style="fill:#d9a072"
/>
  <path
     id="path3213"
     d="m 2.6491878,13.791252 c 1.622057,-0.08407 4.276332,-0.08407 5.898389,0 1.6220562,0.08406 0.294919,0.152846 -2.949195,0.152846 -3.244113,0 -4.57125,-0.06878 -2.949194,-0.152846 z"
     style="fill:#747474"
/>
  <path
     id="path3201-3"
     d="m 20.076309,15.102952 c 0,-1.47613 1.033729,-3.410773 2.394318,-4.481013 1.327413,-1.0441442 1.338817,-1.1740042 0.227188,-2.5872103 -1.196133,-1.520637 -1.116689,-3.411429 0.198599,-4.726717 1.071835,-1.071835 2.82479,-1.363033 4.881924,-0.810979 1.926049,0.516876 2.539947,4.140787 0.98432,5.810556 l -0.92584,0.9937731 1.523313,1.6008902 c 1.521678,1.599174 2.71504,4.197318 2.263478,4.927962 -0.131457,0.212701 -2.783377,0.386729 -5.893156,0.386729 l -5.654144,0 0,-1.113991 z"
     style="fill:#cacaca"
/>
  <path
     id="path3203-3"
     d="m 20.333547,15.618062 c 0.160565,-0.418427 0.78178,-0.544628 2.061646,-0.418828 2.263579,0.222491 3.817794,-0.557752 4.35876,-2.188174 0.519493,-1.565704 -0.0378,-2.177568 -1.960463,-2.152446 -0.792164,0.01035 -1.194532,-0.07416 -0.894151,-0.187801 0.852743,-0.322613 0.646547,-1.1979102 -0.546148,-2.3183893 -1.462302,-1.373761 -1.500888,-3.832999 -0.08107,-5.16685 1.321476,-1.241463 3.901829,-1.279954 5.105622,-0.07616 1.337201,1.337201 1.189837,4.118041 -0.29095,5.4903884 -1.131267,1.0484217 -1.140697,1.0977147 -0.327688,1.7129129 0.460403,0.348384 0.968521,0.639678 1.129151,0.647321 0.452284,0.02152 2.00817,2.714804 2.342759,4.055384 l 0.299883,1.201524 -5.713582,0 c -4.659686,0 -5.671193,-0.110466 -5.48377,-0.598881 z"
     style="fill:#e8c7a2"
/>
  <path
     id="path3205-3"
     d="m 20.333547,15.618062 c 0.160565,-0.418427 0.78178,-0.544628 2.061646,-0.418828 2.263579,0.222491 3.817794,-0.557752 4.35876,-2.188174 0.519493,-1.565704 -0.0378,-2.177568 -1.960463,-2.152446 -0.792164,0.01035 -1.194532,-0.07416 -0.894151,-0.187801 0.826891,-0.312832 0.654418,-1.6480532 -0.327689,-2.5368473 -0.571505,-0.517205 -0.873835,-1.345692 -0.873835,-2.394603 0,-3.164736 3.427183,-4.647813 5.520598,-2.388981 1.371649,1.480034 1.347913,3.416263 -0.05913,4.823303 -1.383455,1.3834561 -1.36962,1.5741841 0.180621,2.4899343 1.172532,0.692632 3.096262,3.821469 3.096262,5.035893 0,0.37203 -1.592234,0.517431 -5.666217,0.517431 -4.619569,0 -5.623766,-0.110624 -5.436404,-0.598881 z M 25.68349,5.6409107 c 1.025818,-1.620168 0.884826,-2.09458 -0.622493,-2.09458 -1.25912,0 -2.0538,1.525691 -1.422345,2.730735 0.57495,1.097213 1.038694,0.952941 2.044838,-0.636155 z"
     style="fill:#efb48b"
/>
  <path
     id="path3207-5"
     d="m 20.333547,15.618062 c 0.160565,-0.418427 0.78178,-0.544628 2.061646,-0.418828 2.263579,0.222491 3.817794,-0.557752 4.35876,-2.188174 0.519493,-1.565704 -0.0378,-2.177568 -1.960463,-2.152446 -0.792164,0.01035 -1.194532,-0.07416 -0.894151,-0.187801 0.826891,-0.312832 0.654418,-1.6480532 -0.327689,-2.5368473 -0.571505,-0.517205 -0.873835,-1.345692 -0.873835,-2.394603 0,-3.164736 3.427183,-4.647813 5.520598,-2.388981 1.371649,1.480034 1.347913,3.416263 -0.05913,4.823303 -1.383455,1.3834561 -1.36962,1.5741841 0.180621,2.4899343 1.172532,0.692632 3.096262,3.821469 3.096262,5.035893 0,0.37203 -1.592234,0.517431 -5.666217,0.517431 -4.619569,0 -5.623766,-0.110624 -5.436404,-0.598881 z m 6.989995,-8.7916663 c 0.878644,-1.34098 0.525351,-3.087933 -0.688689,-3.405412 -2.265617,-0.592472 -3.894249,1.216411 -3.063203,3.402229 0.579483,1.524156 2.754104,1.526001 3.751892,0.0032 z"
     style="fill:#d5b58c"
/>
  <path
     id="path3209-8"
     d="m 20.333547,15.618062 c 0.160565,-0.418427 0.78178,-0.544628 2.061646,-0.418828 2.263579,0.222491 3.817794,-0.557752 4.35876,-2.188174 0.519493,-1.565704 -0.0378,-2.177568 -1.960463,-2.152446 -0.792164,0.01035 -1.194532,-0.07416 -0.894151,-0.187801 0.30038,-0.113641 0.546147,-0.485155 0.546147,-0.8255862 0,-0.396463 0.471185,-0.618967 1.310752,-0.618967 0.720915,0 1.310753,0.154222 1.310753,0.342714 0,0.188494 0.572812,0.6810842 1.272915,1.0946452 1.172532,0.692632 3.096262,3.821469 3.096262,5.035893 0,0.37203 -1.592234,0.517431 -5.666217,0.517431 -4.619569,0 -5.623766,-0.110624 -5.436404,-0.598881 z m 3.89348,-7.2656383 c -0.157371,-0.254631 0.283384,-0.436917 1.056436,-0.436917 1.855888,0 3.012491,-1.751296 2.337542,-3.539439 -0.545814,-1.446027 -0.458625,-1.545768 0.507072,-0.58007 1.044285,1.044284 0.882604,3.495744 -0.284467,4.313193 -1.092419,0.7651601 -3.206155,0.9073191 -3.616583,0.243233 z m 0.764606,-5.981107 c 0.420533,-0.109897 1.108678,-0.109897 1.529211,0 0.420534,0.109897 0.07646,0.199812 -0.764606,0.199812 -0.841066,0 -1.185139,-0.08992 -0.764605,-0.199812 z"
     style="fill:#adadac"
/>
  <path
     id="path3211-0"
     d="m 22.807044,15.892947 c 1.622057,-0.08407 4.276332,-0.08407 5.898389,0 1.622056,0.08406 0.294919,0.152846 -2.949195,0.152846 -3.244113,0 -4.57125,-0.06878 -2.949194,-0.152846 z m 1.419983,-7.5405233 c -0.157371,-0.254631 0.283384,-0.436917 1.056436,-0.436917 1.855888,0 3.012491,-1.751296 2.337542,-3.539439 -0.545814,-1.446027 -0.458625,-1.545768 0.507072,-0.58007 1.044285,1.044284 0.882604,3.495744 -0.284467,4.313193 -1.092419,0.7651601 -3.206155,0.9073191 -3.616583,0.243233 z m 0.764606,-5.981107 c 0.420533,-0.109897 1.108678,-0.109897 1.529211,0 0.420534,0.109897 0.07646,0.199812 -0.764606,0.199812 -0.841066,0 -1.185139,-0.08992 -0.764605,-0.199812 z"
     style="fill:#d9a072"
/>
  <path
     id="path3213-5"
     d="m 11.010434,13.587862 c 1.622057,-0.08407 4.276332,-0.08407 5.898389,0 1.622056,0.08406 0.294919,0.152846 -2.949195,0.152846 -3.244113,0 -4.5712502,-0.06878 -2.949194,-0.152846 z"
     style="fill:#747474"
/>
  <path
     style="fill:#cacaca"
     d="m 1.7256908,28.325086 c 0,-2.192439 1.535358,-5.065891 3.55619,-6.655477 1.971556,-1.550828 1.988494,-1.743705 0.337434,-3.842686 -1.776571,-2.258544 -1.658576,-5.066867 0.294971,-7.020414 1.591956,-1.5919559 4.1955542,-2.0244623 7.2509372,-1.2045171 2.860688,0.7676981 3.772487,6.1501561 1.461973,8.6302011 l -1.375114,1.476011 2.262519,2.377743 c 2.26009,2.37519 4.032546,6.234116 3.361857,7.319314 -0.195247,0.315916 -4.134043,0.574394 -8.752881,0.574394 l -8.3978862,0 0,-1.654569 z"
     id="path3380-1"
/>
  <path
     style="fill:#e8c7a2"
     d="m 2.1077558,29.090159 c 0.238482,-0.621473 1.16115,-0.808914 3.062085,-0.622068 3.362009,0.330457 5.6704262,-0.828409 6.4739032,-3.250013 0.771582,-2.325479 -0.05614,-3.234257 -2.9118032,-3.196945 -1.176571,0.01537 -1.774193,-0.110147 -1.328049,-0.278934 1.266547,-0.479165 0.960293,-1.77921 -0.811171,-3.443415 -2.171903,-2.040396 -2.229214,-5.69301 -0.12041,-7.674128 1.962739,-1.8438977 5.7952392,-1.9010673 7.5831882,-0.113119 1.986094,1.986094 1.76722,6.116371 -0.432138,8.154666 -1.680227,1.557182 -1.694233,1.630395 -0.486703,2.544124 0.683821,0.517443 1.438509,0.950092 1.677086,0.961443 0.67176,0.03196 2.982659,4.032194 3.479612,6.023308 l 0.445404,1.784577 -8.486168,0 c -6.9208552,0 -8.4232072,-0.164071 -8.1448362,-0.889496 z"
     id="path3378-6"
/>
  <path
     style="fill:#efb48b"
     d="m 2.1077558,29.090159 c 0.238482,-0.621473 1.16115,-0.808914 3.062085,-0.622068 3.362009,0.330457 5.6704262,-0.828409 6.4739032,-3.250013 0.771582,-2.325479 -0.05614,-3.234257 -2.9118032,-3.196945 -1.176571,0.01537 -1.774193,-0.110147 -1.328049,-0.278934 1.22815,-0.464637 0.971983,-2.44779 -0.486703,-3.767883 -0.848834,-0.768185 -1.297874,-1.998706 -1.297874,-3.556614 0,-4.7004621 5.0902652,-6.9032206 8.1995352,-3.548262 2.037259,2.198238 2.002005,5.074045 -0.08782,7.16387 -2.054794,2.054794 -2.034245,2.338075 0.268269,3.698204 1.741518,1.02874 4.598761,5.675882 4.598761,7.47962 0,0.552563 -2.364885,0.768521 -8.415818,0.768521 -6.8612712,0 -8.3527682,-0.164305 -8.0744862,-0.889496 z M 10.053825,14.271475 c 1.523608,-2.406374 1.314199,-3.111001 -0.9245652,-3.111001 -1.870124,0 -3.050432,2.266053 -2.112556,4.055858 0.853952,1.629649 1.542733,1.415368 3.0371212,-0.944857 z"
     id="path3376-2"
/>
  <path
     style="fill:#d5b58c"
     d="m 2.1077558,29.090159 c 0.238482,-0.621473 1.16115,-0.808914 3.062085,-0.622068 3.362009,0.330457 5.6704262,-0.828409 6.4739032,-3.250013 0.771582,-2.325479 -0.05614,-3.234257 -2.9118032,-3.196945 -1.176571,0.01537 -1.774193,-0.110147 -1.328049,-0.278934 1.22815,-0.464637 0.971983,-2.44779 -0.486703,-3.767883 -0.848834,-0.768185 -1.297874,-1.998706 -1.297874,-3.556614 0,-4.7004621 5.0902652,-6.9032206 8.1995352,-3.548262 2.037259,2.198238 2.002005,5.074045 -0.08782,7.16387 -2.054794,2.054794 -2.034245,2.338075 0.268269,3.698204 1.741518,1.02874 4.598761,5.675882 4.598761,7.47962 0,0.552563 -2.364885,0.768521 -8.415818,0.768521 -6.8612712,0 -8.3527682,-0.164305 -8.0744862,-0.889496 z M 12.489733,16.032231 c 1.305016,-1.991706 0.780283,-4.58639 -1.022884,-5.057929 -3.3650372,-0.879977 -5.7839812,1.80669 -4.5496602,5.053202 0.860684,2.263772 4.0905662,2.266511 5.5725442,0.0047 z"
     id="path3374-1"
/>
  <path
     style="fill:#adadac"
     d="m 2.3789418,29.090159 c 0.238482,-0.621473 1.161149,-0.808914 3.062085,-0.622068 3.362009,0.330457 5.6704262,-0.828409 6.4739032,-3.250013 0.771582,-2.325479 -0.05614,-3.234257 -2.9118032,-3.196945 -1.176571,0.01537 -1.774193,-0.110147 -1.328049,-0.278934 0.446144,-0.168787 0.811172,-0.720583 0.811172,-1.226213 0,-0.588851 0.699834,-0.919328 1.9468112,-0.919328 1.070747,0 1.946812,0.22906 1.946812,0.509022 0,0.279961 0.850776,1.011587 1.890612,1.625834 1.741518,1.02874 4.598761,5.675882 4.598761,7.47962 0,0.552563 -2.364885,0.768521 -8.415818,0.768521 -6.8612712,0 -8.3527682,-0.164305 -8.0744862,-0.889496 z m 5.782839,-10.791375 c -0.233737,-0.378194 0.420899,-0.648937 1.569085,-0.648937 2.7564802,0 4.4743392,-2.601133 3.4718632,-5.256995 -0.810677,-2.147729 -0.681179,-2.29587 0.753134,-0.861556 1.551037,1.551036 1.310899,5.192097 -0.422508,6.406223 -1.622528,1.136463 -4.7619812,1.347607 -5.3715742,0.361265 z m 1.13564,-8.8835131 c 0.624602,-0.1632257 1.6466792,-0.1632257 2.2712812,0 0.624602,0.163225 0.113564,0.296774 -1.135641,0.296774 -1.2492042,0 -1.7602422,-0.133549 -1.1356402,-0.296774 z"
     id="path3372-9"
/>
  <path
     style="fill:#d9a072"
     d="m 5.7815488,29.498436 c 2.40918,-0.12486 6.3514732,-0.12486 8.7606532,0 2.409179,0.124859 0.438033,0.227017 -4.380327,0.227017 -4.8183592,0 -6.7895062,-0.102158 -4.3803262,-0.227017 z m 2.109046,-11.199652 c -0.233737,-0.378194 0.420899,-0.648937 1.569085,-0.648937 2.7564802,0 4.4743392,-2.601133 3.4718632,-5.256995 -0.810677,-2.147729 -0.681179,-2.29587 0.753134,-0.861556 1.551037,1.551036 1.310899,5.192097 -0.422508,6.406223 -1.622528,1.136463 -4.7619812,1.347607 -5.3715742,0.361265 z m 1.13564,-8.8835131 c 0.624602,-0.1632257 1.6466792,-0.1632257 2.2712812,0 0.624602,0.163225 0.113564,0.296774 -1.135641,0.296774 -1.2492042,0 -1.7602422,-0.133549 -1.1356402,-0.296774 z"
     id="path3370-1"
/>
  <path
     style="fill:#747474"
     d="m 5.7815488,29.498436 c 2.40918,-0.12486 6.3514732,-0.12486 8.7606532,0 2.409179,0.124859 0.438033,0.227017 -4.380327,0.227017 -4.8183592,0 -6.7895062,-0.102158 -4.3803262,-0.227017 z"
     id="path3368-9"
/>
  <path
     style="fill:#747474"
     d="m 16.072917,13.791252 c 1.622057,-0.08407 4.276332,-0.08407 5.898389,0 1.622056,0.08406 0.294919,0.152846 -2.949195,0.152846 -3.244113,0 -4.57125,-0.06878 -2.949194,-0.152846 z"
     id="path3251"
/>
  <path
     style="fill:#747474"
     d="m 24.434163,13.587862 c 1.622057,-0.08407 4.276332,-0.08407 5.898389,0 1.622056,0.08406 0.294919,0.152846 -2.949195,0.152846 -3.244113,0 -4.57125,-0.06878 -2.949194,-0.152846 z"
     id="path3253"
/>
  <path
     id="path3255"
     d="m 15.14942,28.325086 c 0,-2.192439 1.535358,-5.065891 3.55619,-6.655477 1.971556,-1.550828 1.988494,-1.743705 0.337434,-3.842686 -1.776571,-2.258544 -1.658576,-5.066867 0.294971,-7.020414 1.591956,-1.5919559 4.195554,-2.0244623 7.250937,-1.2045171 2.860688,0.7676981 3.772487,6.1501561 1.461973,8.6302011 l -1.375114,1.476011 2.262519,2.377743 c 2.26009,2.37519 4.032546,6.234116 3.361857,7.319314 -0.195247,0.315916 -4.134043,0.574394 -8.752881,0.574394 l -8.397886,0 0,-1.654569 z"
     style="fill:#cacaca"
/>
  <path
     id="path3257"
     d="m 15.531485,29.090159 c 0.238482,-0.621473 1.16115,-0.808914 3.062085,-0.622068 3.362009,0.330457 5.670426,-0.828409 6.473903,-3.250013 0.771582,-2.325479 -0.05614,-3.234257 -2.911803,-3.196945 -1.176571,0.01537 -1.774193,-0.110147 -1.328049,-0.278934 1.266547,-0.479165 0.960293,-1.77921 -0.811171,-3.443415 -2.171903,-2.040396 -2.229214,-5.69301 -0.12041,-7.674128 1.962739,-1.8438977 5.795239,-1.9010673 7.583188,-0.113119 1.986094,1.986094 1.76722,6.116371 -0.432138,8.154666 -1.680227,1.557182 -1.694233,1.630395 -0.486703,2.544124 0.683821,0.517443 1.438509,0.950092 1.677086,0.961443 0.67176,0.03196 2.982659,4.032194 3.479612,6.023308 l 0.445404,1.784577 -8.486168,0 c -6.920855,0 -8.423207,-0.164071 -8.144836,-0.889496 z"
     style="fill:#e8c7a2"
/>
  <path
     id="path3259"
     d="m 15.531485,29.090159 c 0.238482,-0.621473 1.16115,-0.808914 3.062085,-0.622068 3.362009,0.330457 5.670426,-0.828409 6.473903,-3.250013 0.771582,-2.325479 -0.05614,-3.234257 -2.911803,-3.196945 -1.176571,0.01537 -1.774193,-0.110147 -1.328049,-0.278934 1.22815,-0.464637 0.971983,-2.44779 -0.486703,-3.767883 -0.848834,-0.768185 -1.297874,-1.998706 -1.297874,-3.556614 0,-4.7004621 5.090265,-6.9032206 8.199535,-3.548262 2.037259,2.198238 2.002005,5.074045 -0.08782,7.16387 -2.054794,2.054794 -2.034245,2.338075 0.268269,3.698204 1.741518,1.02874 4.598761,5.675882 4.598761,7.47962 0,0.552563 -2.364885,0.768521 -8.415818,0.768521 -6.861271,0 -8.352768,-0.164305 -8.074486,-0.889496 z m 7.946069,-14.818684 c 1.523608,-2.406374 1.314199,-3.111001 -0.924565,-3.111001 -1.870124,0 -3.050432,2.266053 -2.112556,4.055858 0.853952,1.629649 1.542733,1.415368 3.037121,-0.944857 z"
     style="fill:#efb48b"
/>
  <path
     id="path3261"
     d="m 15.531485,29.090159 c 0.238482,-0.621473 1.16115,-0.808914 3.062085,-0.622068 3.362009,0.330457 5.670426,-0.828409 6.473903,-3.250013 0.771582,-2.325479 -0.05614,-3.234257 -2.911803,-3.196945 -1.176571,0.01537 -1.774193,-0.110147 -1.328049,-0.278934 1.22815,-0.464637 0.971983,-2.44779 -0.486703,-3.767883 -0.848834,-0.768185 -1.297874,-1.998706 -1.297874,-3.556614 0,-4.7004621 5.090265,-6.9032206 8.199535,-3.548262 2.037259,2.198238 2.002005,5.074045 -0.08782,7.16387 -2.054794,2.054794 -2.034245,2.338075 0.268269,3.698204 1.741518,1.02874 4.598761,5.675882 4.598761,7.47962 0,0.552563 -2.364885,0.768521 -8.415818,0.768521 -6.861271,0 -8.352768,-0.164305 -8.074486,-0.889496 z M 25.913462,16.032231 c 1.305016,-1.991706 0.780283,-4.58639 -1.022884,-5.057929 -3.365037,-0.879977 -5.783981,1.80669 -4.54966,5.053202 0.860684,2.263772 4.090566,2.266511 5.572544,0.0047 z"
     style="fill:#d5b58c"
/>
  <path
     id="path3263"
     d="m 15.802671,29.090159 c 0.238482,-0.621473 1.161149,-0.808914 3.062085,-0.622068 3.362009,0.330457 5.670426,-0.828409 6.473903,-3.250013 0.771582,-2.325479 -0.05614,-3.234257 -2.911803,-3.196945 -1.176571,0.01537 -1.774193,-0.110147 -1.328049,-0.278934 0.446144,-0.168787 0.811172,-0.720583 0.811172,-1.226213 0,-0.588851 0.699834,-0.919328 1.946811,-0.919328 1.070747,0 1.946812,0.22906 1.946812,0.509022 0,0.279961 0.850776,1.011587 1.890612,1.625834 1.741518,1.02874 4.598761,5.675882 4.598761,7.47962 0,0.552563 -2.364885,0.768521 -8.415818,0.768521 -6.861271,0 -8.352768,-0.164305 -8.074486,-0.889496 z M 21.58551,18.298784 c -0.233737,-0.378194 0.420899,-0.648937 1.569085,-0.648937 2.75648,0 4.474339,-2.601133 3.471863,-5.256995 -0.810677,-2.147729 -0.681179,-2.29587 0.753134,-0.861556 1.551037,1.551036 1.310899,5.192097 -0.422508,6.406223 -1.622528,1.136463 -4.761981,1.347607 -5.371574,0.361265 z m 1.13564,-8.8835131 c 0.624602,-0.1632257 1.646679,-0.1632257 2.271281,0 0.624602,0.163225 0.113564,0.296774 -1.135641,0.296774 -1.249204,0 -1.760242,-0.133549 -1.13564,-0.296774 z"
     style="fill:#adadac"
/>
  <path
     id="path3265"
     d="m 19.205278,29.498436 c 2.40918,-0.12486 6.351473,-0.12486 8.760653,0 2.409179,0.124859 0.438033,0.227017 -4.380327,0.227017 -4.818359,0 -6.789506,-0.102158 -4.380326,-0.227017 z m 2.109046,-11.199652 c -0.233737,-0.378194 0.420899,-0.648937 1.569085,-0.648937 2.75648,0 4.474339,-2.601133 3.471863,-5.256995 -0.810677,-2.147729 -0.681179,-2.29587 0.753134,-0.861556 1.551037,1.551036 1.310899,5.192097 -0.422508,6.406223 -1.622528,1.136463 -4.761981,1.347607 -5.371574,0.361265 z m 1.13564,-8.8835131 c 0.624602,-0.1632257 1.646679,-0.1632257 2.271281,0 0.624602,0.163225 0.113564,0.296774 -1.135641,0.296774 -1.249204,0 -1.760242,-0.133549 -1.13564,-0.296774 z"
     style="fill:#d9a072"
/>
  <path
     id="path3267"
     d="m 19.205278,29.498436 c 2.40918,-0.12486 6.351473,-0.12486 8.760653,0 2.409179,0.124859 0.438033,0.227017 -4.380327,0.227017 -4.818359,0 -6.789506,-0.102158 -4.380326,-0.227017 z"
     style="fill:#747474"
/>
</svg>
</g>

<g id="tool_guests">
<svg
   xmlns:dc="http://purl.org/dc/elements/1.1/"
   xmlns:cc="http://creativecommons.org/ns#"
   xmlns:rdf="http://www.w3.org/1999/02/22-rdf-syntax-ns#"
   xmlns:svg="http://www.w3.org/2000/svg"
   xmlns="http://www.w3.org/2000/svg"
   xmlns:sodipodi="http://sodipodi.sourceforge.net/DTD/sodipodi-0.dtd"
   id="svg2985"
   version="1.1"
   width="31"
   height="34"
   >
  <metadata
     id="metadata2991">
    <rdf:RDF>
      <cc:Work
         rdf:about="">
        <dc:format>image/svg+xml</dc:format>
        <dc:type rdf:resource="http://purl.org/dc/dcmitype/StillImage" />
        <dc:title></dc:title>
      </cc:Work>
    </rdf:RDF>
  </metadata>
  <defs
     id="defs2989"
/>
  <sodipodi:namedview
     pagecolor="#ffffff"
     bordercolor="#666666"
     borderopacity="1"
     objecttolerance="10"
     gridtolerance="10"
     guidetolerance="10"
     id="namedview2987"
     showgrid="false"
/>
  <path
     style="fill:#000000"
     d="m 1.7592089,31.873484 c 0,-2.656394 2.264806,-7.014704 5.257501,-10.117344 2.811062,-2.914334 3.7191821,-3.25 8.7926441,-3.25 6.464247,0 9.948997,2.360359 12.50057,8.467132 2.818859,6.74648 3.007086,6.650789 -12.550714,6.380543 C 5.4345089,33.174471 1.7592089,32.785852 1.7592089,31.873484 z M 27.199912,30.25614 C 25.285945,24.051565 21.7628,19.767854 19.648506,21.074559 c -0.659072,0.407329 -0.940435,0.323342 -0.62525,-0.186638 0.315185,-0.509979 -1.153636,-0.927236 -3.264046,-0.927236 -2.147844,0 -3.580623,0.415004 -3.25451,0.942666 0.323659,0.523692 -0.136004,0.666913 -1.034211,0.322238 -1.6786391,-0.644154 -6.7148391,4.316765 -6.7075411,6.607276 0.0021,0.645301 0.865582,-0.240125 1.918947,-1.967615 1.053366,-1.727489 2.409367,-3.446296 3.013337,-3.81957 0.6039691,-0.373273 -0.03456,0.990423 -1.418948,3.030437 -1.384391,2.040014 -2.517075,4.122878 -2.517075,4.628587 0,0.505708 -0.45,0.641355 -1,0.301436 -0.55,-0.339919 -1,-0.159675 -1,0.400541 0,0.581899 3.536872,1.163006 8.2500011,1.355471 4.5375,0.185294 9.967824,0.428493 12.067388,0.540443 3.53245,0.188352 3.76558,0.0356 3.123314,-2.046455 z M 8.7981649,15.317579 C 5.9356969,12.245081 6.0716899,6.5006585 9.0736609,3.6804536 12.414476,0.54192082 20.990927,0.57117432 23.202506,3.7286456 c 1.998347,2.8530393 1.998347,8.7019484 0,11.5549884 -2.240339,3.198532 -11.435891,3.220202 -14.4043411,0.03394 z M 20.90921,14.783941 C 22.942875,13.050052 23.118506,6.6095759 21.190981,4.4512392 19.563786,2.6291969 12.669771,2.5055516 10.555206,4.2604848 8.8322679,5.6903959 8.8568019,12.713879 10.592036,14.804711 c 1.566494,1.887509 8.09438,1.874368 10.317172,-0.02077 z M 10.739154,13.981974 c -0.695721,-0.838291 -1.0712861,-1.717826 -0.8345901,-1.954522 0.2366951,-0.236695 0.9796341,0.44918 1.6509751,1.524166 1.451813,2.324723 0.967628,2.57996 -0.816385,0.430356 z M 9.7592089,6.6285843 c 0,-1.0085679 2.8921901,-3.6056766 3.3575001,-3.0149454 0.170042,0.2158754 -0.515832,1.1800007 -1.524166,2.1425007 -1.008333,0.9625 -1.8333341,1.3551001 -1.8333341,0.8724447 z M 19.31808,4.9743362 C 18.250459,4.1668281 17.857859,3.5061396 18.445636,3.5061396 c 0.587776,0 1.628885,0.675 2.313574,1.5 1.557204,1.8763163 1.067337,1.8655057 -1.44113,-0.031803 z"
     id="path2997"
/>
</svg>
</g>

<g id="tool_guests_add">
<svg xmlns:dc="http://purl.org/dc/elements/1.1/" xmlns:cc="http://creativecommons.org/ns#" xmlns:rdf="http://www.w3.org/1999/02/22-rdf-syntax-ns#" xmlns:svg="http://www.w3.org/2000/svg" xmlns="http://www.w3.org/2000/svg" xmlns:sodipodi="http://sodipodi.sourceforge.net/DTD/sodipodi-0.dtd"  id="svg3354" version="1.1" sodipodi:docname="guest_add.png" viewBox="0 0 31 34">
  <metadata id="metadata3360">
    <rdf:RDF>
      <cc:Work rdf:about="">
        <dc:format>image/svg+xml</dc:format>
        <dc:type rdf:resource="http://purl.org/dc/dcmitype/StillImage"></dc:type>
        <dc:title></dc:title>
      </cc:Work>
    </rdf:RDF>
  </metadata>
  <defs id="defs3358"/>
  <sodipodi:namedview pagecolor="#ffffff" bordercolor="#666666" borderopacity="1" objecttolerance="10" gridtolerance="10" guidetolerance="10" id="namedview3356" showgrid="false" ></sodipodi:namedview>
    <path style="fill:#cacaca" d="M 2,30.45034 C 2,27.071833 4.365957,22.643899 7.4800205,20.194376 10.518152,17.804581 10.544252,17.507362 8,14.272871 5.2623378,10.792497 5.4441661,6.4649248 8.4545455,3.4545455 10.907719,1.0013723 14.919815,0.33488814 19.628102,1.5984089 c 4.408265,1.1830067 5.813331,9.4772721 2.252873,13.2989741 l -2.119025,2.274507 3.486498,3.664055 c 3.482757,3.660124 6.214078,9.606655 5.180559,11.278924 C 28.128134,32.601691 22.058524,33 14.940983,33 L 2,33 2,30.45034 z" id="path3380" />
    <path style="fill:#e8c7a2" d="M 2.5887551,31.629304 C 2.9562506,30.671626 4.3780642,30.382782 7.3073703,30.670708 12.488161,31.179937 16.045389,29.394146 17.283531,25.6625 18.472525,22.078981 17.19702,20.678571 12.796498,20.736069 10.983424,20.759758 10.0625,20.566334 10.75,20.306237 12.701725,19.567854 12.229793,17.564508 9.5,15 6.1531393,11.855788 6.0648247,6.2271797 9.3144512,3.174314 12.338995,0.33290271 18.244805,0.24480538 21,3 c 3.060533,3.0605332 2.723252,9.425211 -0.665916,12.566185 -2.589199,2.399589 -2.610782,2.512408 -0.75,3.920448 1.053754,0.797368 2.216714,1.464072 2.584357,1.481564 1.03517,0.04925 4.596222,6.213535 5.362016,9.281803 L 28.216816,33 15.139793,33 C 4.4748868,33 2.15979,32.747169 2.5887551,31.629304 z" id="path3378" />
    <path style="fill:#efb48b" d="M 2.5887551,31.629304 C 2.9562506,30.671626 4.3780642,30.382782 7.3073703,30.670708 12.488161,31.179937 16.045389,29.394146 17.283531,25.6625 18.472525,22.078981 17.19702,20.678571 12.796498,20.736069 10.983424,20.759758 10.0625,20.566334 10.75,20.306237 12.642556,19.59024 12.247807,16.534238 10,14.5 8.6919619,13.316242 8,11.420033 8,9.0193265 8,1.7760032 15.844002,-1.6184055 20.635329,3.5515219 23.774706,6.9389653 23.72038,11.370529 20.5,14.590909 c -3.166399,3.166399 -3.134733,3.60293 0.413397,5.698862 C 23.597043,21.87504 28,29.036197 28,31.815724 28,32.667213 24.355757,33 15.031385,33 4.4582963,33 2.1599282,32.746809 2.5887551,31.629304 z M 14.833497,8.7939936 C 17.181348,5.0858165 16.858652,4 13.408759,4 10.526934,4 8.708101,7.491944 10.15335,10.25 c 1.315924,2.511258 2.377323,2.181054 4.680147,-1.4560064 z" id="path3376" />
    <path style="fill:#d5b58c" d="M 2.5887551,31.629304 C 2.9562506,30.671626 4.3780642,30.382782 7.3073703,30.670708 12.488161,31.179937 16.045389,29.394146 17.283531,25.6625 18.472525,22.078981 17.19702,20.678571 12.796498,20.736069 10.983424,20.759758 10.0625,20.566334 10.75,20.306237 12.642556,19.59024 12.247807,16.534238 10,14.5 8.6919619,13.316242 8,11.420033 8,9.0193265 8,1.7760032 15.844002,-1.6184055 20.635329,3.5515219 23.774706,6.9389653 23.72038,11.370529 20.5,14.590909 c -3.166399,3.166399 -3.134733,3.60293 0.413397,5.698862 C 23.597043,21.87504 28,29.036197 28,31.815724 28,32.667213 24.355757,33 15.031385,33 4.4582963,33 2.1599282,32.746809 2.5887551,31.629304 z M 18.587184,11.507285 C 20.598189,8.4381032 19.789586,4.439744 17.010939,3.7131115 11.825482,2.3570841 8.0979337,6.4971864 10,11.5 c 1.326298,3.488429 6.303484,3.492651 8.587184,0.0073 z" id="path3374" />
    <path style="fill:#adadac" d="M 2.5887551,31.629304 C 2.9562506,30.671626 4.3780642,30.382782 7.3073703,30.670708 12.488161,31.179937 16.045389,29.394146 17.283531,25.6625 18.472525,22.078981 17.19702,20.678571 12.796498,20.736069 10.983424,20.759758 10.0625,20.566334 10.75,20.306237 11.4375,20.04614 12,19.195833 12,18.416667 12,17.509259 13.078431,17 15,17 c 1.65,0 3,0.352977 3,0.784392 0,0.431416 1.311029,1.558837 2.913397,2.505379 C 23.597043,21.87504 28,29.036197 28,31.815724 28,32.667213 24.355757,33 15.031385,33 4.4582963,33 2.1599282,32.746809 2.5887551,31.629304 z M 11.5,15 c -0.360185,-0.582791 0.648598,-1 2.41793,-1 4.247683,0 6.894872,-4.0082963 5.350075,-8.100929 -1.249238,-3.3096102 -1.049684,-3.5378926 1.160566,-1.3276424 2.390118,2.3901179 2.02007,8.0009234 -0.651077,9.8718674 C 17.277208,16.194564 12.439371,16.519934 11.5,15 z M 13.25,1.3106745 c 0.9625,-0.2515276 2.5375,-0.2515276 3.5,0 0.9625,0.2515275 0.175,0.4573228 -1.75,0.4573228 -1.925,0 -2.7125,-0.2057953 -1.75,-0.4573228 z" id="path3372" />
    <path style="fill:#d9a072" d="m 8.25,32.25845 c 3.7125,-0.192407 9.7875,-0.192407 13.5,0 3.7125,0.192406 0.675,0.349829 -6.75,0.349829 -7.425,0 -10.4625,-0.157423 -6.75,-0.349829 z M 11.5,15 c -0.360185,-0.582791 0.648598,-1 2.41793,-1 4.247683,0 6.894872,-4.0082963 5.350075,-8.100929 -1.249238,-3.3096102 -1.049684,-3.5378926 1.160566,-1.3276424 2.390118,2.3901179 2.02007,8.0009234 -0.651077,9.8718674 C 17.277208,16.194564 12.439371,16.519934 11.5,15 z M 13.25,1.3106745 c 0.9625,-0.2515276 2.5375,-0.2515276 3.5,0 0.9625,0.2515275 0.175,0.4573228 -1.75,0.4573228 -1.925,0 -2.7125,-0.2057953 -1.75,-0.4573228 z" id="path3370" />
    <path style="fill:#747474" d="m 8.25,32.25845 c 3.7125,-0.192407 9.7875,-0.192407 13.5,0 3.7125,0.192406 0.675,0.349829 -6.75,0.349829 -7.425,0 -10.4625,-0.157423 -6.75,-0.349829 z" id="path3368" />
</svg>
</g>

<g id="tool_guests_manage">
<svg xmlns:dc="http://purl.org/dc/elements/1.1/" xmlns:cc="http://creativecommons.org/ns#" xmlns:rdf="http://www.w3.org/1999/02/22-rdf-syntax-ns#" xmlns:svg="http://www.w3.org/2000/svg" xmlns="http://www.w3.org/2000/svg" xmlns:sodipodi="http://sodipodi.sourceforge.net/DTD/sodipodi-0.dtd" id="svg3039" version="1.1" sodipodi:docname="manage_guests.svg" viewBox="0 0 40 37">
  <metadata id="metadata3045">
    <rdf:RDF>
      <cc:Work rdf:about="">
        <dc:format>image/svg+xml</dc:format>
        <dc:type rdf:resource="http://purl.org/dc/dcmitype/StillImage"></dc:type>
        <dc:title></dc:title>
      </cc:Work>
    </rdf:RDF>
  </metadata>
  <defs id="defs3043"/>
  <sodipodi:namedview pagecolor="#ffffff" bordercolor="#666666" borderopacity="1" objecttolerance="10" gridtolerance="10" guidetolerance="10" id="namedview3041" showgrid="false" ></sodipodi:namedview>
    <path style="fill:#d2d1e6" d="m 14.739747,34.003425 c -0.240465,-0.6875 -0.338842,-2.15 -0.218615,-3.25 0.191796,-1.754816 -0.516959,-2.061296 -5.781406,-2.5 C 2.8720186,27.764449 2.7441517,27.690784 2.94045,24.91242 3.0508482,23.349867 4.3581737,20.475846 5.8456178,18.525707 8.0753544,15.602371 8.3472966,14.65532 7.3948938,13.13028 4.5717605,8.609725 8.069303,2.2534246 13.379863,2.2534246 c 2.492546,0 6.185444,3.1319076 7.062443,5.9895831 0.319572,1.0413166 1.540384,1.3962563 4.056741,1.1794596 6.251001,-0.538555 9.493217,4.8904497 6.648807,11.1332507 -0.930914,2.043133 -0.706234,2.812511 1.524132,5.219116 2.80606,3.027788 4.161995,6.708049 3.102866,8.421756 -0.977466,1.581574 -20.47699,1.40251 -21.035105,-0.193165 z" id="path3146" />
    <path style="fill:#e5cdae" d="m 16.098157,33.503425 c -0.07786,-0.4125 -0.190363,-1.875 -0.25,-3.25 -0.100224,-2.310769 -0.52474,-2.523259 -5.608431,-2.807284 -3.025,-0.169005 -5.8757942,-0.6798 -6.3350982,-1.135098 -1.0258142,-1.016867 1.4008618,-5.902171 4.1820027,-8.419068 L 10.138293,16.035245 8.0731328,13.241966 C 6.4148181,10.998975 6.193101,9.8876901 6.9476911,7.6010554 8.9948275,1.3976166 17.268125,1.2191003 19.574206,7.3286079 c 1.028007,2.7235001 1.490688,2.9925961 4.254087,2.4741792 6.551742,-1.2291142 11.173773,6.6407799 6.42445,10.9388579 -1.969101,1.782011 -1.955601,1.832931 1.5,5.657868 1.917841,2.122821 3.486983,4.758377 3.486983,5.856793 0,1.85601 -0.671235,1.997119 -9.5,1.997119 -5.225,0 -9.563706,-0.3375 -9.641569,-0.75 z" id="path3144" />
    <path style="fill:#d1add7" d="m 16.098157,33.503425 c -0.07786,-0.4125 -0.190363,-1.875 -0.25,-3.25 -0.100224,-2.310769 -0.52474,-2.523259 -5.608431,-2.807284 -3.025,-0.169005 -5.8791883,-0.683194 -6.3426407,-1.14264 C 2.8607129,25.276086 4.6598985,21.638028 7.9515403,18.105155 9.980686,15.927301 10.225429,15.095228 9.329354,13.420896 7.8916993,10.734614 7.9441406,6.94901 9.439726,5.4534246 c 1.699024,-1.6990236 6.368913,-1.48823 8.228571,0.3714286 2.006063,2.006063 2.02087,5.8106798 0.02905,7.4637458 -1.127504,0.935745 -1.24395,1.573897 -0.432909,2.372444 0.805851,0.793438 1.661264,0.339809 3.125788,-1.657618 2.188276,-2.984532 7.380882,-3.818621 9.649503,-1.55 1.709284,1.709284 1.483508,5.829246 -0.435658,7.949901 -1.531619,1.692419 -1.404405,2.063353 2,5.831621 1.999609,2.213332 3.635655,4.922943 3.635655,6.021359 0,1.85601 -0.671235,1.997119 -9.5,1.997119 -5.225,0 -9.563706,-0.3375 -9.641569,-0.75 z" id="path3142" />
    <path style="fill:#ea91d7" d="m 30.239726,33.534783 c -8.915351,-1.143816 -9.053694,-1.211224 -8.369446,-4.078047 0.354871,-1.486821 1.088272,-3.265811 1.629778,-3.953311 1.532378,-1.945517 -0.686677,-1.535103 -3.346889,0.619007 -1.89976,1.538332 -3.467456,1.782282 -8.860784,1.378834 C 7.6884223,27.231671 4.3639318,26.667324 3.9046278,26.247161 2.7681591,25.20754 5.6531198,19.86001 8.6017607,17.540608 10.729684,15.866784 10.846065,15.435547 9.62174,13.761183 7.9209818,11.435257 7.8252966,7.067854 9.439726,5.4534246 c 1.699024,-1.6990236 6.368913,-1.48823 8.228571,0.3714286 1.989366,1.9893652 2.026068,5.8063658 0.07143,7.4285718 -1.87861,1.559108 -1.933849,3 -0.11501,3 0.761745,0 2.122118,-1.125 3.023053,-2.5 1.802859,-2.75151 7.194198,-3.497759 9.391957,-1.3 1.993286,1.993286 1.35563,6.028119 -1.408656,8.913413 l -2.608656,2.72285 2.894018,1.496555 c 3.279,1.695637 6.189929,6.281774 4.753088,7.488439 -0.511387,0.429465 -2.054794,0.63651 -3.429794,0.460101 z" id="path3140" />
    <path style="fill:#a4c3e8" d="m 29.239726,33.292953 c -3.115945,-0.511599 -3.292433,-0.695517 -1.608382,-1.676098 1.343026,-0.78201 1.748168,-1.851852 1.396984,-3.688956 -0.412643,-2.158603 -0.222355,-2.441795 1.147963,-1.708423 2.278264,1.21929 4.651608,5.880909 3.493229,6.861247 -0.511387,0.432788 -2.504794,0.528291 -4.429794,0.21223 z m -19,-5.781794 C 7.214726,27.306393 4.3639318,26.766341 3.9046278,26.311043 2.7801505,25.196373 5.6271961,19.880401 8.6017607,17.540608 10.729684,15.866784 10.846065,15.435547 9.62174,13.761183 7.9209818,11.435257 7.8252966,7.067854 9.439726,5.4534246 c 1.699024,-1.6990236 6.368913,-1.48823 8.228571,0.3714286 1.989366,1.9893652 2.026068,5.8063658 0.07143,7.4285718 -1.87861,1.559108 -1.933849,3 -0.11501,3 0.761745,0 2.122118,-1.125 3.023053,-2.5 1.195664,-1.824813 2.523083,-2.5 4.91501,-2.5 3.918533,0 5.676947,1.516295 5.676947,4.895281 0,2.863827 -4.560305,8.104719 -7.052233,8.104719 -0.922927,0 -2.822214,0.9 -4.220638,2 -1.398423,1.1 -2.921609,1.916758 -3.384858,1.815018 -0.463249,-0.101741 -3.317271,-0.352518 -6.342271,-0.557284 z" id="path3138" />
    <path style="fill:#ebc599" d="m 29.239726,33.292953 c -3.115945,-0.511599 -3.292433,-0.695517 -1.608382,-1.676098 1.343026,-0.78201 1.748168,-1.851852 1.396984,-3.688956 -0.412643,-2.158603 -0.222355,-2.441795 1.147963,-1.708423 2.278264,1.21929 4.651608,5.880909 3.493229,6.861247 -0.511387,0.432788 -2.504794,0.528291 -4.429794,0.21223 z m -18.75,-6.254259 C 4.0651401,26.051995 1.8809603,24.320126 7.2538122,24.472889 c 3.4445338,0.09794 3.4970188,0.06275 4.4290738,-2.969464 0.573534,-1.86585 0.312182,-2.25 -1.53076,-2.25 -2.0512737,0 -2.1008339,-0.134733 -0.643719,-1.75 1.376302,-1.525684 1.396168,-1.998816 0.154987,-3.69113 C 7.9265377,11.444143 7.8098495,7.0833011 9.439726,5.4534246 c 1.699024,-1.6990236 6.368913,-1.48823 8.228571,0.3714286 1.989366,1.9893652 2.026068,5.8063658 0.07143,7.4285718 -1.87861,1.559108 -1.933849,3 -0.11501,3 0.761745,0 2.122118,-1.125 3.023053,-2.5 1.195664,-1.824813 2.523083,-2.5 4.91501,-2.5 3.918533,0 5.676947,1.516295 5.676947,4.895281 0,2.863827 -4.560305,8.104719 -7.052233,8.104719 -0.922927,0 -2.822214,0.9 -4.220638,2 -1.398423,1.1 -2.696609,1.94266 -2.884858,1.872577 -0.188249,-0.07008 -3.154771,-0.559372 -6.592271,-1.087308 z" id="path3136" />
    <path style="fill:#edb58c" d="m 29.239726,33.292953 c -3.115945,-0.511599 -3.292433,-0.695517 -1.608382,-1.676098 1.343026,-0.78201 1.748168,-1.851852 1.396984,-3.688956 -0.412643,-2.158603 -0.222355,-2.441795 1.147963,-1.708423 2.278264,1.21929 4.651608,5.880909 3.493229,6.861247 -0.511387,0.432788 -2.504794,0.528291 -4.429794,0.21223 z m -18.75,-6.254259 C 4.0651401,26.051995 1.8809603,24.320126 7.2538122,24.472889 c 3.4445338,0.09794 3.4970188,0.06275 4.4290738,-2.969464 0.573534,-1.86585 0.312182,-2.25 -1.53076,-2.25 -2.0535094,0 -2.1019934,-0.13302 -0.638079,-1.750627 1.177983,-1.301657 1.322454,-2.218512 0.563323,-3.575003 -0.561534,-1.003407 -0.8672229,-1.903124 -0.679308,-1.999373 3.402809,-1.742888 4.393651,-2.8119608 4.658086,-5.0258593 0.398104,-3.3329871 1.665767,-3.369051 3.802376,-0.1081741 1.445791,2.2065571 1.48595,2.8974902 0.30514,5.2500004 -0.74787,1.48997 -1.524203,3.046536 -1.725184,3.459036 -0.200981,0.4125 0.759579,0.75 2.134579,0.75 1.375,0 2.704644,0.5625 2.954764,1.25 0.763914,2.099754 4.171031,-0.609539 4.528325,-3.600862 0.174033,-1.457026 0.70439,-2.649138 1.178572,-2.649138 1.528911,0 4.005006,3.087976 4.005006,4.994703 0,2.522079 -4.763157,8.005297 -6.954035,8.005297 -0.976936,0 -2.920412,0.9 -4.318836,2 -1.398423,1.1 -2.696609,1.94266 -2.884858,1.872577 -0.188249,-0.07008 -3.154771,-0.559372 -6.592271,-1.087308 z" id="path3134" />
    <path style="fill:#98add9" d="m 29.239726,33.292953 c -3.115945,-0.511599 -3.292433,-0.695517 -1.608382,-1.676098 1.343026,-0.78201 1.748168,-1.851852 1.396984,-3.688956 -0.412643,-2.158603 -0.222355,-2.441795 1.147963,-1.708423 2.278264,1.21929 4.651608,5.880909 3.493229,6.861247 -0.511387,0.432788 -2.504794,0.528291 -4.429794,0.21223 z m -18.75,-6.254259 C 4.0651401,26.051995 1.8809603,24.320126 7.2538122,24.472889 c 3.4445338,0.09794 3.4970188,0.06275 4.4290738,-2.969464 0.573534,-1.86585 0.312182,-2.25 -1.53076,-2.25 -2.0535094,0 -2.1019934,-0.13302 -0.638079,-1.750627 1.100881,-1.21646 1.301702,-2.255593 0.658152,-3.405553 -0.739724,-1.321815 -0.554218,-1.557665 0.921617,-1.171725 3.669631,0.95963 7.353666,-6.6145797 3.89591,-8.0098147 -0.962424,-0.3883464 -0.967727,-0.5225487 -0.02305,-0.5833333 0.674821,-0.043421 1.976154,1.0644864 2.891851,2.4620166 1.445791,2.2065571 1.48595,2.8974902 0.30514,5.2500004 -0.74787,1.48997 -1.524203,3.046536 -1.725184,3.459036 -0.200981,0.4125 0.612448,0.75 1.80762,0.75 1.195172,0 2.924113,0.927535 3.84209,2.061189 1.093624,1.350567 2.272342,1.829684 3.418925,1.389699 2.271004,-0.871466 3.305545,-5.055619 1.721834,-6.963874 -1.677114,-2.020798 0.40623,-1.948704 2.439348,0.08441 0.864286,0.86429 1.571429,2.404764 1.571429,3.423279 0,2.522079 -4.763157,8.005297 -6.954035,8.005297 -0.976936,0 -2.920412,0.9 -4.318836,2 -1.398423,1.1 -2.696609,1.94266 -2.884858,1.872577 -0.188249,-0.07008 -3.154771,-0.559372 -6.592271,-1.087308 z" id="path3132" />
    <path style="fill:#d7b18e" d="m 27.615446,31.76945 c 1.248523,-0.94543 1.718698,-2.241776 1.406124,-3.876901 -0.58144,-3.041607 1.390484,-2.551256 3.658164,0.90966 2.399125,3.661528 1.916832,4.453886 -2.690008,4.419413 -3.888251,-0.0291 -4.090343,-0.152702 -2.37428,-1.452172 z M 11.792512,25.338835 c -0.310886,-0.503024 -0.03744,-1.090524 0.60765,-1.305555 1.530751,-0.510251 1.526228,-7.050967 -0.0052,-7.561452 -0.64797,-0.21599 -1.615163,-1.20932 -2.149319,-2.2074 -0.797719,-1.49055 -0.643679,-1.729044 0.862383,-1.3352 3.658671,0.956772 7.32988,-6.6221518 3.8817,-8.0135227 -0.962424,-0.3883464 -0.967727,-0.5225487 -0.02305,-0.5833333 0.674821,-0.043421 2.001745,1.1035437 2.94872,2.5488105 1.65134,2.520263 1.632892,2.7821928 -0.450969,6.4029805 -1.8225,3.166663 -1.935132,3.866401 -0.69872,4.340857 0.810712,0.3111 1.474022,0.129759 1.474022,-0.40298 0,-1.660221 2.10279,-1.063242 3.848464,1.092574 1.093624,1.350567 2.272342,1.829684 3.418925,1.389699 2.271004,-0.871466 3.305545,-5.055619 1.721834,-6.963874 -1.677114,-2.020798 0.40623,-1.948704 2.439348,0.08441 0.864286,0.86429 1.571429,2.432191 1.571429,3.484228 0,2.780523 -5.056123,7.836867 -8.212188,8.212547 -1.491703,0.177564 -3.029203,0.639859 -3.416666,1.027322 -1.02723,1.02723 -7.155425,0.862541 -7.81836,-0.210111 z" id="path3130" />
    <path style="fill:#c675c4" d="m 27.615446,31.76945 c 1.248523,-0.94543 1.718698,-2.241776 1.406124,-3.876901 -0.58144,-3.041607 1.390484,-2.551256 3.658164,0.90966 2.399125,3.661528 1.916832,4.453886 -2.690008,4.419413 -3.888251,-0.0291 -4.090343,-0.152702 -2.37428,-1.452172 z M 11.792512,25.338835 c -0.310886,-0.503024 -0.03744,-1.090524 0.60765,-1.305555 1.566588,-0.522196 1.505378,-6.750325 -0.07595,-7.727638 -0.92098,-0.569197 -0.570933,-1.503308 1.333334,-3.558046 1.4202,-1.532419 2.58218,-3.6470643 2.58218,-4.6992111 0,-1.0521469 0.45,-1.634879 1,-1.2949603 1.873037,1.1576003 1.077394,5.3882134 -1.247337,6.6323714 -1.395606,0.746906 -1.77224,1.361103 -0.993769,1.620594 0.689462,0.22982 1.028348,0.782268 0.75308,1.22766 -0.275268,0.445393 0.171929,1.067835 0.99377,1.383205 0.821841,0.31537 1.499246,0.02502 1.505345,-0.645215 0.0061,-0.670238 1.163714,0.243885 2.572478,2.031385 1.454591,1.845647 3.480709,3.25 4.688911,3.25 2.941033,0 0.961228,1.779911 -2.484666,2.233798 -1.491703,0.196484 -3.029203,0.67426 -3.416666,1.061723 -1.02723,1.02723 -7.155425,0.862541 -7.81836,-0.210111 z M 26.051165,19.21447 c 1.203708,-1.121425 2.188561,-2.947983 2.188561,-4.059017 0,-1.111034 0.45,-1.741947 1,-1.402028 1.724968,1.066089 1.102285,5.374891 -0.934259,6.464816 -3.260566,1.745003 -4.576045,1.159261 -2.254302,-1.003771 z" id="path3128" />
    <path style="fill:#e1a37a" d="m 11.792512,25.338835 c -0.310886,-0.503024 -0.03744,-1.090524 0.60765,-1.305555 1.566588,-0.522196 1.505378,-6.750325 -0.07595,-7.727638 -0.92098,-0.569197 -0.570933,-1.503308 1.333334,-3.558046 1.4202,-1.532419 2.58218,-3.6470643 2.58218,-4.6992111 0,-1.0521469 0.45,-1.634879 1,-1.2949603 1.873037,1.1576003 1.077394,5.3882134 -1.247337,6.6323714 -1.395606,0.746906 -1.77224,1.361103 -0.993769,1.620594 0.689462,0.22982 1.028348,0.782268 0.75308,1.22766 -0.275268,0.445393 0.171929,1.067835 0.99377,1.383205 0.821841,0.31537 1.499246,0.02502 1.505345,-0.645215 0.0061,-0.670238 1.163714,0.243885 2.572478,2.031385 1.408764,1.7875 3.541274,3.290585 4.738911,3.340188 1.490806,0.06175 1.073742,0.4018 -1.322478,1.078283 -1.925,0.543452 -3.9275,1.402867 -4.45,1.909812 -1.228846,1.192261 -7.261438,1.197638 -7.997214,0.0071 z M 26.051165,19.21447 c 1.203708,-1.121425 2.188561,-2.947983 2.188561,-4.059017 0,-1.111034 0.45,-1.741947 1,-1.402028 1.724968,1.066089 1.102285,5.374891 -0.934259,6.464816 -3.260566,1.745003 -4.576045,1.159261 -2.254302,-1.003771 z" id="path3126" />
    <path style="fill:#a99ca3" d="m 11.792512,25.338835 c -0.310886,-0.503024 -0.03744,-1.090524 0.60765,-1.305555 1.579914,-0.526638 1.499055,-6.754233 -0.100532,-7.742832 -0.810684,-0.501031 -0.904041,-1.015318 -0.256909,-1.415267 1.299495,-0.803132 4.343761,0.331771 3.697005,1.378244 -0.268682,0.434737 0.183903,1.04846 1.005744,1.36383 0.821841,0.31537 1.499246,0.02502 1.505345,-0.645215 0.0061,-0.670238 1.163714,0.243885 2.572478,2.031385 1.408764,1.7875 3.541274,3.290585 4.738911,3.340188 1.490806,0.06175 1.073742,0.4018 -1.322478,1.078283 -1.925,0.543452 -3.9275,1.402867 -4.45,1.909812 -1.228846,1.192261 -7.261438,1.197638 -7.997214,0.0071 z" id="path3124" />
    <path style="fill:#699ad3" d="m 11.792512,25.338835 c -0.310886,-0.503024 -0.02093,-1.096027 0.644337,-1.317784 0.681811,-0.227271 1.164042,-2.00984 1.105207,-4.08541 -0.119497,-4.215656 -0.173529,-4.184091 3.717686,-2.171866 4.174817,2.158882 5.382148,4.815722 3.119065,6.863783 -1.927607,1.744461 -7.654549,2.218873 -8.586295,0.711277 z" id="path3122" />
    <path style="fill:#6b88ae" d="m 18.601851,21.65191 c -1.20416,-3.847219 0.0088,-4.23159 2.328515,-0.737886 1.115971,1.680742 1.126845,2.245985 0.06024,3.131189 -1.006858,0.835618 -1.547733,0.293713 -2.388755,-2.393303 z" id="path3120" />
</svg>
</g>



<g id="svg_eof"/>
</svg>
